# xmcd CD database file
#
# Track frame offsets:
#	150
#	15254
#	33524
#	56557
#	74517
#	89726
#	106040
#	126044
#	131001
#	137932
#	158309
#	178025
#	201222
#
# Disc length: 3016 seconds
#
# Revision: 0
# Processed by: cddbd v1.5.1PL2 Copyright (c) Steve Scherf et al.
# Submitted via: CDex 1.51
#
DISCID=af0bc60d
DTITLE=HORSE the band - The Mechanical Hand
DYEAR=2005
DGENRE=Other
TTITLE0=Birdo
TTITLE1=A Million Exploding Suns
TTITLE2=Manateen
TTITLE3=The House Of Bad
TTITLE4=Hereos Die
TTITLE5=Softer Sounds
TTITLE6=Octopus On Fire
TTITLE7=Soaring Quails
TTITLE8=Taken By Voltures
TTITLE9=A Rusty Glove
TTITLE10=Sand
TTITLE11=Lord Gold Throneroom
TTITLE12=The Black Hole
EXTD=YEAR: 2005
EXTT0=
EXTT1=
EXTT2=
EXTT3=
EXTT4=
EXTT5=
EXTT6=
EXTT7=
EXTT8=
EXTT9=
EXTT10=
EXTT11=
EXTT12=
PLAYORDER=
